#tb 0: 1/25
0,          0,          0,        1,  3686400, 0x1f9b5bee
0,          1,          1,        1,  3686400, 0x657c3609
0,          2,          2,        1,  3686400, 0x75753934
0,          3,          3,        1,  3686400, 0xf434d8e1
0,          4,          4,        1,  3686400, 0x40679c77
0,          5,          5,        1,  3686400, 0x5734d8db
0,          6,          6,        1,  3686400, 0x4a3d8269
0,          7,          7,        1,  3686400, 0xd20b6cf6
0,          8,          8,        1,  3686400, 0x31956bca
0,          9,          9,        1,  3686400, 0xd28d9758
